<mxfile host="app.diagrams.net" modified="2022-11-07T08:28:04.511Z" agent="5.0 (X11)" etag="48GxtBO_nxfLRiLUVJtH" version="20.5.3" type="github">
  <diagram name="Page-1" id="38b20595-45e3-9b7f-d5ca-b57f44c5b66d">
    <mxGraphModel dx="3076" dy="755" grid="1" gridSize="25" guides="1" tooltips="1" connect="1" arrows="1" fold="1" page="1" pageScale="1" pageWidth="1654" pageHeight="1169" math="0" shadow="0">
      <root>
        <mxCell id="0" />
        <mxCell id="1" parent="0" />
        <mxCell id="u3zWE18VJpoSn7ixeQs8-63" value="" style="group" parent="1" vertex="1" connectable="0">
          <mxGeometry x="-200" y="200" width="200" height="100" as="geometry" />
        </mxCell>
        <mxCell id="u3zWE18VJpoSn7ixeQs8-50" value="" style="rounded=0;whiteSpace=wrap;html=1;fillStyle=auto;strokeWidth=3;fillColor=#ffe6cc;strokeColor=#030303;container=0;" parent="u3zWE18VJpoSn7ixeQs8-63" vertex="1">
          <mxGeometry width="200" height="100" as="geometry" />
        </mxCell>
        <mxCell id="u3zWE18VJpoSn7ixeQs8-51" value="&lt;div style=&quot;font-size: 19px;&quot;&gt;Behandlungsraum&lt;/div&gt;&lt;div style=&quot;font-size: 19px;&quot;&gt;&lt;br&gt;&lt;/div&gt;" style="text;html=1;strokeColor=none;fillColor=none;align=center;verticalAlign=top;whiteSpace=wrap;rounded=0;fillStyle=auto;strokeWidth=3;fontSize=19;container=0;" parent="u3zWE18VJpoSn7ixeQs8-63" vertex="1">
          <mxGeometry y="21.53" width="199.67076923076922" height="55" as="geometry" />
        </mxCell>
        <mxCell id="u3zWE18VJpoSn7ixeQs8-52" value="RN:1" style="text;html=1;strokeColor=none;fillColor=none;align=center;verticalAlign=middle;whiteSpace=wrap;rounded=0;fillStyle=auto;strokeWidth=3;fontSize=18;fontStyle=1;container=0;" parent="u3zWE18VJpoSn7ixeQs8-63" vertex="1">
          <mxGeometry width="57" height="26" as="geometry" />
        </mxCell>
        <mxCell id="u3zWE18VJpoSn7ixeQs8-54" value="mÂ²" style="text;html=1;strokeColor=none;fillColor=none;align=center;verticalAlign=middle;whiteSpace=wrap;rounded=0;fillStyle=auto;strokeWidth=3;fontSize=20;fontStyle=1;container=0;" parent="u3zWE18VJpoSn7ixeQs8-63" vertex="1">
          <mxGeometry x="125" y="62" width="74.67" height="38" as="geometry" />
        </mxCell>
      </root>
    </mxGraphModel>
  </diagram>
</mxfile>
